# xmcd
#
# Track frame offsets:
# 150
# 19200
# 34332
# 60810
# 78960
# 97870
# 111880
# 116665
# 160650
# 198485
#
# Disc length: 2822 seconds
#
#
# Revision: 1
# Processed by: cddbd v1.5.2PL0 Copyright (c) Steve Scherf et al.
# Submitted via: FreeRIP 2.951 
#
DISCID=720b040a
DTITLE=Gonzaguinha - Moleque Gonzaguinha
DYEAR=1977
DGENRE=MPB
TTITLE0=Dias de Santos e Silvas
TTITLE1=Teatro de Revistas
TTITLE2=Festa e solidão
TTITLE3=Frutos
TTITLE4=Caminho da roça
TTITLE5=O que importa? - participação Miúcha e Telma
TTITLE6=Por aí
TTITLE7=Quintais - O meu Aboio
TTITLE8=Festa - Moleque
TTITLE9=Pobreza por pobreza
EXTD=
EXTT0=Gonzaguinha
EXTT1=Gonzaguinha
EXTT2=Gonzaguinha
EXTT3=Gonzaguinha
EXTT4=Gonzaguinha
EXTT5=Gonzaguinha
EXTT6=Gonzaguinha
EXTT7=Gonzaguinha/Gonzaguinha
EXTT8=Gonzaguinha/Gonzaguinha
EXTT9=Gonzaguinha
PLAYORDER=
